<svg width="47" height="40" viewBox="0 0 47 40" fill="none" xmlns="http://www.w3.org/2000/svg">
<mask id="mask0_577_771" style="mask-type:luminance" maskUnits="userSpaceOnUse" x="0" y="0" width="47" height="40">
<path d="M46.8036 0H0.196411V40H46.8036V0Z" fill="white"/>
</mask>
<g mask="url(#mask0_577_771)">
<mask id="mask1_577_771" style="mask-type:luminance" maskUnits="userSpaceOnUse" x="0" y="0" width="46" height="30">
<path d="M0.444702 0.948662H45.9804V30H0.444702V0.948662Z" fill="white"/>
</mask>
<g mask="url(#mask1_577_771)">
<path d="M0.441895 0.973773C1.10317 1.86663 1.73654 2.79855 2.61823 3.4933C4.9843 5.41574 8.02839 6.22768 11.0027 6.6183C15.3303 7.20145 19.7053 7.09263 24.058 7.10379C25.9581 7.07589 27.8582 7.14565 29.7527 7.00335C32.6852 6.99777 35.6233 6.70201 38.4776 6.04074C40.3191 5.54967 42.1551 4.86049 43.6506 3.65234C44.5965 2.90737 45.308 1.9308 46.0027 0.962612C45.986 2.40513 45.3247 3.73047 44.602 4.94141C43.1344 7.29353 40.7572 8.96205 38.1846 9.91629C36.0195 10.7059 33.7315 11.1328 31.438 11.303C31.2483 11.3309 31.0111 11.303 30.9106 11.5067C30.7767 12.1289 30.76 12.7734 30.6037 13.3956C30.1461 15.3544 29.058 17.0759 28.2014 18.8728C27.4257 20.4492 27.0435 22.2015 26.9849 23.9537C26.957 24.601 27.049 25.2483 26.9932 25.8929C26.7505 26.3002 26.3627 26.596 26.0306 26.9252C25.241 27.6451 24.549 28.4626 23.751 29.1769C23.5502 29.3527 23.2516 29.5898 22.9837 29.3917C22.1272 28.7444 21.4882 27.8655 20.6874 27.154C20.2745 26.7411 19.7583 26.4035 19.4625 25.8873C19.3984 25.466 19.4514 25.0391 19.4542 24.6177C19.5128 22.8153 19.1528 21.01 18.4302 19.3583C17.6796 17.6144 16.6779 15.9794 16.0613 14.1769C15.7377 13.2645 15.6791 12.2935 15.5423 11.3449C11.8872 11.1049 8.13163 10.3516 5.05127 8.2673C3.05629 6.93638 1.52727 4.93583 0.754395 2.66741C0.564662 2.12054 0.472587 1.54855 0.441895 0.973773Z" fill="white"/>
</g>
<mask id="mask2_577_771" style="mask-type:luminance" maskUnits="userSpaceOnUse" x="7" y="14" width="16" height="25">
<path d="M7.51782 14.2857H22.5178V38.9844H7.51782V14.2857Z" fill="white"/>
</mask>
<g mask="url(#mask2_577_771)">
<path d="M9.27291 20.9012C10.788 18.856 12.2779 16.7913 13.7874 14.7433C14.1362 15.5776 14.4236 16.4397 14.8393 17.2489C15.5536 18.6663 16.4409 20.014 16.9124 21.543C17.4509 23.2338 17.4565 25.0335 17.423 26.7913C17.37 27.1429 17.6769 27.3717 17.889 27.6032C19.2115 28.8477 20.5034 30.1256 21.7924 31.4063C22.1998 31.7662 22.0938 32.3465 22.1133 32.832C22.077 34.9554 22.1775 37.0815 22.1133 39.202C21.7897 38.9453 21.5023 38.6468 21.2512 38.3175C20.3471 37.168 19.3343 36.1077 18.3856 34.9916C16.2651 32.5837 14.2143 30.1172 12.0882 27.7121C10.7071 26.1217 9.28128 24.5647 7.95874 22.9213C8.2545 22.1624 8.81811 21.5597 9.27291 20.9012Z" fill="white"/>
</g>
<mask id="mask3_577_771" style="mask-type:luminance" maskUnits="userSpaceOnUse" x="23" y="14" width="16" height="25">
<path d="M23.9464 14.2857H38.9464V38.9844H23.9464V14.2857Z" fill="white"/>
</mask>
<g mask="url(#mask3_577_771)">
<path d="M32.6378 14.7963C32.8136 14.9805 32.9894 15.1618 33.14 15.3683C34.6188 17.4581 36.1227 19.5285 37.6545 21.5792C37.928 21.9782 38.2572 22.3493 38.4414 22.8013C38.4497 23.0859 38.1763 23.284 38.0256 23.5017C34.1026 27.9074 30.2941 32.4163 26.4241 36.8694C25.721 37.6423 25.1378 38.5324 24.3314 39.202C24.2449 37.8627 24.3538 36.5206 24.3259 35.1786C24.3621 34.0709 24.2617 32.952 24.3817 31.8471C24.8002 31.0686 25.5787 30.558 26.1674 29.9135C27.0854 28.9397 28.1512 28.0971 28.9938 27.0564C29.0441 25.4799 28.9241 23.8672 29.337 22.3214C29.8504 19.9302 31.4324 17.9855 32.2639 15.7199C32.3839 15.4102 32.5095 15.1032 32.6378 14.7963Z" fill="white"/>
</g>
</g>
</svg>
